<svg width="340" height="100" viewBox="0 0 340 100" fill="none" xmlns="http://www.w3.org/2000/svg">
<rect x="4" y="17" width="332" height="10" fill="white"/>
<path d="M4.16 28.968H16.96V73H4.16V28.968ZM22.208 58.024H19.648V48.232H21.824C23.1467 48.232 24.1493 48.1893 24.832 48.104C25.5147 47.976 26.048 47.7627 26.432 47.464C26.7733 47.1653 27.008 46.7173 27.136 46.12C27.264 45.5227 27.328 44.648 27.328 43.496C27.328 42.344 27.264 41.4693 27.136 40.872C27.008 40.232 26.7733 39.7627 26.432 39.464C26.0907 39.1653 25.5787 38.9733 24.896 38.888C24.256 38.8027 23.232 38.76 21.824 38.76H19.648V28.968H26.24C29.2693 28.968 31.7227 29.2667 33.6 29.864C35.4773 30.4613 36.928 31.3787 37.952 32.616C38.8907 33.768 39.5093 35.1973 39.808 36.904C40.1493 38.6107 40.32 40.808 40.32 43.496C40.32 46.952 40 49.6187 39.36 51.496C38.464 53.8853 36.8853 55.5707 34.624 56.552L41.28 73H27.84L22.208 58.024ZM77.621 39.08C76.213 38.9093 73.7383 38.6747 70.197 38.376C68.2343 38.2907 66.6557 38.248 65.461 38.248C63.925 38.248 62.4743 38.2907 61.109 38.376V28.456H62.709C66.2077 28.456 69.8343 28.6907 73.589 29.16C74.7837 29.3307 76.1277 29.5653 77.621 29.864V39.08ZM67.061 60.008C67.061 59.112 66.997 58.472 66.869 58.088C66.741 57.6613 66.5277 57.384 66.229 57.256C65.9303 57.0853 65.4183 56.9573 64.693 56.872L56.821 55.912C52.1703 55.4 49.0343 53.8853 47.413 51.368C46.6877 50.3013 46.197 49 45.941 47.464C45.685 45.928 45.557 44.0507 45.557 41.832C45.557 37.096 46.773 33.6827 49.205 31.592C51.1677 29.8853 54.2397 28.8827 58.421 28.584V41.448C58.421 42.0027 58.4423 42.472 58.485 42.856C58.5277 43.24 58.613 43.5387 58.741 43.752C58.869 44.008 59.0823 44.2 59.381 44.328C59.6797 44.4133 60.1277 44.4773 60.725 44.52L69.557 45.608C71.3917 45.864 72.885 46.184 74.037 46.568C75.189 46.952 76.1703 47.5493 76.981 48.36C78.901 50.3653 79.861 53.928 79.861 59.048C79.861 64.4667 78.6663 68.264 76.277 70.44C75.2103 71.4213 73.909 72.1467 72.373 72.616C70.8797 73.0427 69.109 73.32 67.061 73.448V60.008ZM63.669 73.512C59.4023 73.512 55.4343 73.32 51.765 72.936C49.589 72.7227 47.9463 72.5093 46.837 72.296V62.952C49.3543 63.1653 52.2343 63.3787 55.477 63.592C57.525 63.6773 58.9757 63.72 59.829 63.72C62.133 63.72 63.6477 63.656 64.373 63.528V73.512H63.669ZM119.723 28.968H132.523V73H119.723V28.968ZM135.211 28.968H151.467V38.76H135.211V28.968ZM135.211 45.864H148.458V55.656H135.211V45.864ZM135.211 63.208H151.467V73H135.211V63.208ZM173.752 28.52C174.093 28.4773 174.627 28.456 175.352 28.456H177.016C179.875 28.456 182.669 28.6693 185.4 29.096C186.808 29.3093 187.896 29.5227 188.664 29.736V38.888C188.024 38.8453 186.957 38.7387 185.464 38.568C183.459 38.3547 181.709 38.248 180.216 38.248C178.552 38.248 177.208 38.312 176.184 38.44C175.203 38.5253 174.392 38.696 173.752 38.952V28.52ZM177.016 73.512C172.749 73.512 169.357 73.1493 166.84 72.424C164.365 71.656 162.488 70.3973 161.208 68.648C159.971 66.984 159.117 64.7867 158.648 62.056C158.221 59.2827 158.008 55.592 158.008 50.984C158.008 46.9307 158.157 43.6453 158.456 41.128C158.797 38.6107 159.395 36.4987 160.248 34.792C161.144 33.0427 162.445 31.6987 164.152 30.76C165.901 29.7787 168.205 29.1173 171.064 28.776V50.984C171.064 53.3733 171.107 55.6773 171.192 57.896C171.277 59.6027 171.597 60.8827 172.152 61.736C172.749 62.5893 173.667 63.1227 174.904 63.336C176.099 63.592 177.869 63.72 180.216 63.72C182.648 63.72 184.717 63.6133 186.424 63.4C187.107 63.3573 187.939 63.2507 188.92 63.08V72.36C186.829 72.8293 184.461 73.1493 181.816 73.32C180.365 73.448 178.765 73.512 177.016 73.512ZM195.535 28.968H208.335V73H195.535V28.968ZM216.66 30.76V28.968H229.46L254.164 71.144V73H241.428L216.66 30.76ZM242.004 45.032V28.968H254.164V65.832L242.004 45.032ZM216.66 36.072L228.82 56.872V73H216.66V36.072ZM262.473 28.968H275.273V73H262.473V28.968ZM277.961 28.968H292.937V38.76H277.961V28.968ZM277.961 47.144H290.569V56.936H277.961V47.144ZM323.796 50.984C323.796 47.272 323.774 44.84 323.732 43.688C323.646 41.9387 323.412 40.68 323.028 39.912C322.644 39.1013 322.025 38.6107 321.172 38.44C320.318 38.312 319.102 38.248 317.524 38.248C315.689 38.248 314.494 38.3333 313.94 38.504V28.52C314.324 28.4773 314.9 28.456 315.668 28.456H317.524C322.302 28.456 325.993 28.84 328.596 29.608C331.241 30.3333 333.161 31.5493 334.356 33.256C335.465 34.8347 336.148 36.904 336.404 39.464C336.702 42.024 336.852 45.864 336.852 50.984C336.852 55.464 336.745 58.92 336.532 61.352C336.361 63.7413 335.892 65.7253 335.124 67.304C334.27 69.096 332.948 70.4613 331.156 71.4C329.406 72.3387 326.953 72.9573 323.796 73.256V50.984ZM317.524 73.512C311.294 73.512 306.814 72.8293 304.084 71.464C302.676 70.7813 301.566 69.864 300.756 68.712C299.945 67.56 299.348 66.1307 298.964 64.424C298.622 62.9307 298.409 61.224 298.324 59.304C298.238 57.3413 298.196 54.568 298.196 50.984C298.196 46.504 298.281 43.0693 298.452 40.68C298.665 38.2907 299.156 36.2853 299.924 34.664C300.777 32.9147 302.078 31.5707 303.828 30.632C305.577 29.6933 308.052 29.0533 311.252 28.712V50.984C311.252 53.5013 311.294 55.912 311.38 58.216C311.465 59.9653 311.678 61.2453 312.02 62.056C312.404 62.8667 313.022 63.336 313.876 63.464C314.601 63.6347 315.817 63.72 317.524 63.72C319.273 63.72 320.468 63.656 321.108 63.528V73.448C320.724 73.4907 320.148 73.512 319.38 73.512H317.524Z" fill="black"/>
<rect x="93" y="29" width="13.5" height="44" fill="white"/>
</svg>
